<svg xmlns="http://www.w3.org/2000/svg" xmlns:xlink="http://www.w3.org/1999/xlink" preserveAspectRatio="xMidYMid meet" version="1.0" viewBox="0.0 0.0 494.2 77.6" zoomAndPan="magnify" style="fill: rgb(0, 0, 0);" original_string_length="2067"><g data-name="Layer 2" id="__id160_s032ltqhcr"><path d="M293.5,19.45a4.07,4.07,0,1,1-4.06,4.06A4.07,4.07,0,0,1,293.5,19.45Zm-62,0a4.07,4.07,0,1,1-4.06,4.06A4.07,4.07,0,0,1,231.54,19.45ZM390.42,13l.58-.09A5.85,5.85,0,0,0,395.85,8l1.29-8,1.29,8a5.87,5.87,0,0,0,4.86,4.86l8,1.29-8,1.29a5.87,5.87,0,0,0-4.86,4.86l-1.29,8-1.29-8A5.85,5.85,0,0,0,391,15.45l-.58-.09H274.91l16,16L289.22,33,261.77,5.6,234.33,33l-1.7-1.69,16-16H128.44l-.57.09A5.84,5.84,0,0,0,123,20.31l-1.29,8-1.29-8a5.9,5.9,0,0,0-1.64-3.22,5.83,5.83,0,0,0-3.22-1.64l-8-1.29,8-1.29A5.84,5.84,0,0,0,120.43,8l1.29-8L123,8a5.84,5.84,0,0,0,4.86,4.86l.57.09H251L261.77,2.21,272.52,13Zm-98,25.23h4.36l9.54-9.54,9.53,9.54h4.36l-13.89-13.9Zm-261-4.89,5.42,5.42h18L40.41,24.29Zm172.42,5.42h4.37l10.4-10.4L229,38.72h3.69L218.27,24.29Zm236.07-.53h16.46a1.21,1.21,0,0,1,1,.54l5.43-5.43-9-9ZM296.37,40.58h-5l15,15,15-15h-5l-9.93,9.93Zm-241.52.54h-18l-5.42,5.42,9,9ZM28,33.3,21.4,39.92,28,46.54l-9,9L3.39,39.92,19,24.29Zm180.85,7.82h-5l14.44,14.43L232.7,41.12h-4.37l-9.73,9.73ZM466.19,33.3l9-9,15.63,15.63L475.2,55.55l-9-9,6.62-6.62Zm-9.42,7.21a1.41,1.41,0,0,1-.41.07H438.83l15,15,9-9ZM262.29,20.22l19.36,19.36L262.29,58.94,242.93,39.58Zm31.21,32a4.07,4.07,0,1,1-4.06,4.06A4.07,4.07,0,0,1,293.5,52.26Zm-62,0a4.07,4.07,0,1,1-4.06,4.06A4.07,4.07,0,0,1,231.54,52.26Zm30.75-36.4,24.06,24.06L262.29,64,238.23,39.92Zm25.76,22.37a1.19,1.19,0,0,1,.33,0H289L306.31,20.9l17.28,17.29H436.52L453.8,20.9l10.7,10.7,10.7-10.7,19,19-19,19-10.7-10.7-10.7,10.7L435.44,40.58H324.66L306.31,58.93l-17.8-17.79L262.29,67.36,236.06,41.14,218.27,58.93,200.45,41.12H58.23L40.41,58.93l-10.7-10.7L19,58.93l-19-19,19-19,10.7,10.7,10.7-10.7L58.23,38.72H200.45L218.27,20.9l17.79,17.8,26.23-26.23Zm1.17,8.56L261.77,74.24,234.33,46.79l-1.7,1.7,29.14,29.13,29.14-29.13Z" fill-rule="evenodd" style="fill: rgb(6, 44, 63);"/></g></svg>