<svg xmlns="http://www.w3.org/2000/svg" xmlns:xlink="http://www.w3.org/1999/xlink" preserveAspectRatio="xMidYMid meet" version="1.0" viewBox="-0.0 0.0 495.3 71.2" zoomAndPan="magnify" style="fill: rgb(0, 0, 0);" original_string_length="1578"><g data-name="Layer 5" id="__id158_s032ltqhcr"><path d="M233.21,18l3.24,3.23L247.63,10l11.19,11.18L262.05,18,247.63,3.53Zm5,5,3.91,3.9,5.51-5.51,5.52,5.51,3.9-3.9-9.42-9.42ZM427.71,28a7.72,7.72,0,1,0,0-2.49h8.86V28ZM67.56,25.53a7.72,7.72,0,1,0,0,2.49h-8.4V25.53Zm61.67,14.4A16.19,16.19,0,0,1,138.86,28h70.73L197.68,39.93ZM258.82,24.72l-3.91,3.9L266.3,40,253.74,52.56l3.9,3.91L274.1,40ZM221.16,40l16.46,16.47,3.91-3.91L229,40l11.38-11.38-3.9-3.9Zm26.47,18.67-4.34-4.34-3.9,3.9,8.24,8.25,8.25-8.25L252,54.33ZM229.68,18l-3.24-3.24L200,41.18l26.48,26.47,9.42-9.42L217.63,40l17.05-17-3.23-3.23-.28.28-1.77-1.77Zm35.9,0,.28.28L264.1,20l-.28-.28L260.58,23,277.64,40,259.41,58.23l9.42,9.42,26.26-26.26V41L268.83,14.71ZM425.18,28H285.68l11.9,11.91h167a16.14,16.14,0,0,0,14.6-16.06A16.13,16.13,0,0,0,495.26,40a16.14,16.14,0,0,0-16.13,16.14,16.13,16.13,0,0,0-7.78-13.8v.09H297.58L268.83,71.18,257.64,60l-10,10-10-10L226.44,71.18,197.68,42.43H129v.48c0-.16,0-.32,0-.48H25.08v-.74a16.13,16.13,0,0,0-8.94,14.45A16.14,16.14,0,0,0,0,40,16.14,16.14,0,0,0,16.14,23.87a16.14,16.14,0,0,0,14.6,16.06h97.94A16.15,16.15,0,0,0,119.06,28h-49a10.21,10.21,0,1,1,0-2.49h49A16.16,16.16,0,0,0,129,10.64a16.14,16.14,0,0,0,9.9,14.89h73.22l14.36-14.36,5,5L247.63,0l16.19,16.18,5-5,14.35,14.36h142a10.22,10.22,0,1,1,0,2.49Z" fill-rule="evenodd" style="fill: rgb(6, 44, 63);"/></g></svg>