<svg xmlns="http://www.w3.org/2000/svg" xmlns:xlink="http://www.w3.org/1999/xlink" preserveAspectRatio="xMidYMid meet" version="1.0" viewBox="0.0 0.0 494.2 121.1" zoomAndPan="magnify" style="fill: rgb(0, 0, 0);" original_string_length="3809"><g data-name="Layer 6" id="__id156_s032ltqhcr"><path d="M260.59,29.33,247.11,15.85,233.7,29.25l-6-6,19.5-19.5,19.5,19.5ZM235.5,31.06l11.68,11.68,11.6-11.6L247.11,19.46ZM188.4,41.58a4.1,4.1,0,0,1,4.09,4.09,4.11,4.11,0,0,1-1.2,2.9,4.07,4.07,0,0,1-2.89,1.2,4.1,4.1,0,0,1-4.1-4.1,4.07,4.07,0,0,1,1.2-2.89A4.11,4.11,0,0,1,188.4,41.58Zm118,.68a4.1,4.1,0,0,1,4.09,4.09,4.11,4.11,0,0,1-1.2,2.9,4.12,4.12,0,0,1-5.79,0,4.11,4.11,0,0,1-1.2-2.9,4.1,4.1,0,0,1,4.1-4.09Zm-118-2.36a5.77,5.77,0,1,1-5.78,5.77A5.78,5.78,0,0,1,188.4,39.9Zm118,.68a5.77,5.77,0,1,1-5.78,5.77A5.77,5.77,0,0,1,306.44,40.58ZM261,58.47c5.28,0,10.56,0,15.81.06l9.46,0L260.59,32.94,247.18,46.35,233.7,32.87,208,58.53c8.34,0,16.74-.06,25.15-.07a14,14,0,0,1,27.76,0Zm-56.54.07,27.48-27.48L225.81,25,192.19,58.6Zm97.83.13L268.55,25l-6.15,6.16,27.46,27.45ZM188.4,69.92a4.07,4.07,0,0,1,2.89,1.2,4.11,4.11,0,0,1,1.2,2.9,4.1,4.1,0,0,1-4.09,4.09,4.11,4.11,0,0,1-2.9-1.2A4.07,4.07,0,0,1,184.3,74a4.1,4.1,0,0,1,4.1-4.1Zm118,.68a4.1,4.1,0,1,1-2.9,1.2A4.07,4.07,0,0,1,306.44,70.6Zm-118-2.35A5.77,5.77,0,1,1,182.62,74,5.77,5.77,0,0,1,188.4,68.25Zm118,.67a5.78,5.78,0,1,1-5.78,5.78A5.78,5.78,0,0,1,306.44,68.92Zm-73.25-6.33q-12.63,0-25.15-.07L233.7,88.18,247.18,74.7l13.41,13.41,25.63-25.64-9.46.05c-5.25,0-10.53,0-15.81.06a14,14,0,0,1-27.76,0Zm68.89-.21-12.22.07L262.4,89.91,268.47,96Zm-110,.07,33.7,33.69L231.89,90,204.41,62.51ZM235.5,90l11.61,11.6,11.67-11.68-11.6-11.6Zm11.61,15.21L233.7,91.8l-6,6,19.49,19.49,19.5-19.5-6.08-6.08ZM160.65,58.8l24-.16-13-13,1.81-1.81,14.76,14.76h.34L247.18,0l58.64,58.64L320.6,43.86l1.81,1.81-13.05,13,24,.17a17.69,17.69,0,0,0,10.27-16.06,17.7,17.7,0,0,0,10.64,16.23l5.54,0a13.91,13.91,0,0,0,7.79-12.49,13.9,13.9,0,0,0,8.09,12.63l4.86,0a11,11,0,0,0,5.89-9.71,10.94,10.94,0,0,0,6.12,9.82l2.28,0h2a8.57,8.57,0,0,0,4.44-7.52,8.59,8.59,0,0,0,4.6,7.62l3.72,0a6.73,6.73,0,0,0,3.31-5.81,6.77,6.77,0,0,0,3.43,5.88l3.27,0a5.3,5.3,0,0,0,2.45-4.47,5.29,5.29,0,0,0,2.53,4.52l2.88,0a4.17,4.17,0,0,0,1.78-3.42,4.16,4.16,0,0,0,1.83,3.46c38.4.41,63.12.71,63.12.71s-24.72.31-63.12.72a4.16,4.16,0,0,0-1.83,3.45,4.17,4.17,0,0,0-1.78-3.41l-2.88,0a5.29,5.29,0,0,0-2.53,4.52,5.29,5.29,0,0,0-2.45-4.47l-3.27,0a6.74,6.74,0,0,0-3.43,5.88,6.73,6.73,0,0,0-3.31-5.81l-3.72,0a8.59,8.59,0,0,0-4.6,7.62,8.6,8.6,0,0,0-4.44-7.53l-2,0-2.28,0a10.93,10.93,0,0,0-6.12,9.82,10.94,10.94,0,0,0-5.89-9.71l-4.86,0a13.9,13.9,0,0,0-8.09,12.63,13.89,13.89,0,0,0-7.79-12.49l-5.54.05a17.7,17.7,0,0,0-10.64,16.23A17.71,17.71,0,0,0,333.4,62.15c-7.84.07-15.82.13-23.89.18l13.05,13-1.81,1.8L305.92,62.35h-.2L270.28,97.8h0l-23.11,23.11h0l-.14.14L188.41,62.43h0L173.61,77.18l-1.8-1.8,13-13-24.13-.16a17.7,17.7,0,0,0-10.07,16,17.68,17.68,0,0,0-10.42-16.13l-6-.05a13.91,13.91,0,0,0-7.59,12.39,13.92,13.92,0,0,0-7.89-12.54l-5.22,0a10.91,10.91,0,0,0-5.73,9.62,10.93,10.93,0,0,0-6-9.74l-4.55,0A8.59,8.59,0,0,0,93,69.12a8.57,8.57,0,0,0-4.47-7.54l-4,0a6.75,6.75,0,0,0-3.19,5.75A6.77,6.77,0,0,0,78,61.46l-2,0-1.53,0a5.3,5.3,0,0,0-2.35,4.41,5.3,5.3,0,0,0-2.43-4.46h-.7l-2.36,0A4.18,4.18,0,0,0,65,64.69a4.18,4.18,0,0,0-1.75-3.4c-35.09-.4-58.93-.72-63.24-.77,4.31-.05,28.15-.36,63.24-.77A4.15,4.15,0,0,0,65,56.35a4.15,4.15,0,0,0,1.7,3.36l2.36,0h.7a5.3,5.3,0,0,0,2.43-4.46,5.3,5.3,0,0,0,2.35,4.41l1.53,0,2,0a6.77,6.77,0,0,0,3.32-5.82,6.75,6.75,0,0,0,3.19,5.75l4-.05A8.58,8.58,0,0,0,93,51.93a8.59,8.59,0,0,0,4.3,7.45l4.55-.05a10.93,10.93,0,0,0,6-9.74,10.91,10.91,0,0,0,5.73,9.62l5.22-.05a13.92,13.92,0,0,0,7.89-12.54A13.92,13.92,0,0,0,134.2,59l6,0a17.69,17.69,0,0,0,10.42-16.13A17.7,17.7,0,0,0,160.65,58.8Z" fill-rule="evenodd" style="fill: rgb(6, 44, 63);"/></g></svg>